<svg width="288" height="144" viewBox="0 0 288 144" fill="none" xmlns="http://www.w3.org/2000/svg">
<rect width="288" height="144" fill="white"/>
<path d="M99.48 102.09V98.46H106.53V64.81L89.64 102.98L69.06 64.54V98.46H76.89V102.09H55.53V98.46H62.58V47.36H55.53V43.64H72.98L92.44 81.63L109.44 43.64H127.45V47.36H120.4V98.46H127.45V102.09H99.49H99.48Z" fill="black"/>
<path d="M160.52 101.57C159.22 101.94 157.92 102.08 156.71 102.08C154.2 102.08 152.16 100.98 151.7 98.4C150.77 100.31 149.1 102.37 144.18 102.37C137.87 102.37 133.88 98.62 133.88 93.33C133.88 86.86 140.84 85.32 148.73 83.63L151.05 83.12V75.62C151.05 72.02 150.86 70.77 147.99 70.77H146.87C146.5 70.77 145.76 70.99 144.92 71.28V75.98L135.54 78.04C135.17 76.94 134.98 76.64 134.98 75.76C134.98 75.39 135.07 74.88 135.16 74.14C135.81 70.39 141.94 67.23 149 67.23C156.99 67.23 161.81 70.17 161.81 75.83V97.45H166.64V99.65L160.51 101.56L160.52 101.57ZM151.05 86.94L144.64 88.41V94.29C144.64 96.94 146.13 97.82 146.96 97.82C147.89 97.82 149.47 97.38 151.05 95.17V86.94Z" fill="black"/>
<path d="M195.54 101.57C194.24 101.94 192.94 102.08 191.73 102.08C189.22 102.08 187.18 100.98 186.72 98.4C185.79 100.31 184.12 102.37 179.2 102.37C172.89 102.37 168.89 98.62 168.89 93.33C168.89 86.86 175.86 85.32 183.75 83.63L186.07 83.12V75.62C186.07 72.02 185.88 70.77 183.01 70.77H181.89C181.52 70.77 180.78 70.99 179.94 71.28V75.98L170.56 78.04C170.19 76.94 170 76.64 170 75.76C170 75.39 170.1 74.88 170.19 74.14C170.84 70.39 176.97 67.23 184.03 67.23C192.02 67.23 196.84 70.17 196.84 75.83V97.45H201.67V99.65L195.54 101.56V101.57ZM186.07 86.94L179.66 88.41V94.29C179.66 96.94 181.15 97.82 181.98 97.82C182.91 97.82 184.49 97.38 186.07 95.17V86.94Z" fill="black"/>
<path d="M219.72 102.37C213.34 102.37 210.55 97.34 210.55 91.07V60.75H203.95V56.33L210.55 54.69V41.02H223.3V54.49H231.91V60.76H223.3V92C223.3 93.34 224.42 94.26 226.1 94.26C227.11 94.26 228 93.85 229.79 92.1L232.48 96.21C227.44 100.94 223.75 102.37 219.73 102.37H219.72Z" fill="black"/>
<path d="M208.07 60.75H127.33C126.49 60.75 125.78 60.25 125.67 59.59L125.38 57.77L211.69 53.53L211.81 56.29L208.06 60.75H208.07Z" fill="black"/>
</svg>
